<?xml version="1.0" standalone="no"?>
<svg xmlns:xlink="http://www.w3.org/1999/xlink" xmlns="http://www.w3.org/2000/svg" viewBox="0 0 500 600" width="500" height="600" preserveAspectRatio="xMidYMid meet" style="width: 100%; height: 100%; transform: translate3d(0px, 0px, 0px); content-visibility: visible;"><defs><clipPath id="__lottie_element_419"><rect width="500" height="600" x="0" y="0"/></clipPath></defs><g clip-path="url(#__lottie_element_419)"><g transform="matrix(1,0,0,1,224.0909881591797,66.06298828125)" opacity="1" style="display: block;"><g opacity="1" transform="matrix(1,0,0,1,82.91200256347656,215.14300537109375)"><path stroke-linecap="butt" stroke-linejoin="miter" fill-opacity="0" stroke-miterlimit="10" stroke="rgb(241,90,34)" stroke-opacity="1" stroke-width="0.419" d=" M81.86499786376953,214.09500122070312 C81.86499786376953,214.09500122070312 81.86499786376953,-119.56600189208984 81.86499786376953,-119.56600189208984 C81.86499786376953,-119.56600189208984 -81.86499786376953,-214.09500122070312 -81.86499786376953,-214.09500122070312 C-81.86499786376953,-214.09500122070312 -81.62799835205078,-165.36500549316406 -81.62799835205078,-165.36500549316406"/></g></g><g transform="matrix(1,0,0,1,97.53700256347656,88.27099609375)" opacity="1" style="display: block;"><g opacity="1" transform="matrix(1,0,0,1,81.38600158691406,203.37100219726562)"><path fill="rgb(255,255,255)" fill-opacity="1" d=" M-69.71700286865234,-115.802001953125 C-69.71700286865234,-115.802001953125 -69.71700286865234,196.18099975585938 -69.71700286865234,196.18099975585938 C-69.71700286865234,196.18099975585938 69.71700286865234,115.8010025024414 69.71700286865234,115.8010025024414 C69.71700286865234,115.8010025024414 69.71700286865234,-196.18099975585938 69.71700286865234,-196.18099975585938 C69.71700286865234,-196.18099975585938 -69.71700286865234,-115.802001953125 -69.71700286865234,-115.802001953125z"/><path stroke-linecap="butt" stroke-linejoin="miter" fill-opacity="0" stroke-miterlimit="10" stroke="rgb(241,90,34)" stroke-opacity="1" stroke-width="0.381" d=" M-69.71700286865234,-115.802001953125 C-69.71700286865234,-115.802001953125 -69.71700286865234,196.18099975585938 -69.71700286865234,196.18099975585938 C-69.71700286865234,196.18099975585938 69.71700286865234,115.8010025024414 69.71700286865234,115.8010025024414 C69.71700286865234,115.8010025024414 69.71700286865234,-196.18099975585938 69.71700286865234,-196.18099975585938 C69.71700286865234,-196.18099975585938 -69.71700286865234,-115.802001953125 -69.71700286865234,-115.802001953125z"/></g><g opacity="1" transform="matrix(1,0,0,1,6.326000213623047,240.45899963378906)"><path fill="rgb(255,255,255)" fill-opacity="1" d=" M5.373000144958496,-152.88999938964844 C5.373000144958496,-152.88999938964844 5.373000144958496,159.09300231933594 5.373000144958496,159.09300231933594 C5.373000144958496,159.09300231933594 -5.373000144958496,152.8560028076172 -5.373000144958496,152.8560028076172 C-5.373000144958496,152.8560028076172 -5.373000144958496,-159.09300231933594 -5.373000144958496,-159.09300231933594 C-5.373000144958496,-159.09300231933594 5.373000144958496,-152.88999938964844 5.373000144958496,-152.88999938964844z"/><path stroke-linecap="butt" stroke-linejoin="miter" fill-opacity="0" stroke-miterlimit="10" stroke="rgb(241,90,34)" stroke-opacity="1" stroke-width="0.381" d=" M5.373000144958496,-152.88999938964844 C5.373000144958496,-152.88999938964844 5.373000144958496,159.09300231933594 5.373000144958496,159.09300231933594 C5.373000144958496,159.09300231933594 -5.373000144958496,152.8560028076172 -5.373000144958496,152.8560028076172 C-5.373000144958496,152.8560028076172 -5.373000144958496,-159.09300231933594 -5.373000144958496,-159.09300231933594 C-5.373000144958496,-159.09300231933594 5.373000144958496,-152.88999938964844 5.373000144958496,-152.88999938964844z"/></g><g opacity="1" transform="matrix(1,0,0,1,76.0270004272461,44.26100158691406)"><path fill="rgb(255,255,255)" fill-opacity="1" d=" M-75.07499694824219,37.104000091552734 C-75.07499694824219,37.104000091552734 -64.3290023803711,43.308998107910156 -64.3290023803711,43.308998107910156 C-64.3290023803711,43.308998107910156 75.07499694824219,-37.071998596191406 75.07499694824219,-37.071998596191406 C75.07499694824219,-37.071998596191406 64.27100372314453,-43.308998107910156 64.27100372314453,-43.308998107910156 C64.27100372314453,-43.308998107910156 -75.07499694824219,37.104000091552734 -75.07499694824219,37.104000091552734z"/><path stroke-linecap="butt" stroke-linejoin="miter" fill-opacity="0" stroke-miterlimit="10" stroke="rgb(241,90,34)" stroke-opacity="1" stroke-width="0.381" d=" M-75.07499694824219,37.104000091552734 C-75.07499694824219,37.104000091552734 -64.3290023803711,43.308998107910156 -64.3290023803711,43.308998107910156 C-64.3290023803711,43.308998107910156 75.07499694824219,-37.071998596191406 75.07499694824219,-37.071998596191406 C75.07499694824219,-37.071998596191406 64.27100372314453,-43.308998107910156 64.27100372314453,-43.308998107910156 C64.27100372314453,-43.308998107910156 -75.07499694824219,37.104000091552734 -75.07499694824219,37.104000091552734z"/></g><g opacity="1" transform="matrix(1,0,0,1,20.972999572753906,243.46800231933594)"><path stroke-linecap="butt" stroke-linejoin="miter" fill-opacity="0" stroke-miterlimit="10" stroke="rgb(241,90,34)" stroke-opacity="1" stroke-width="0.381" d=" M-4.578999996185303,-12.357000350952148 C-4.578999996185303,-12.357000350952148 -4.578999996185303,17.69700050354004 -4.578999996185303,17.69700050354004 C-4.578999996185303,17.69700050354004 4.578999996185303,12.357999801635742 4.578999996185303,12.357999801635742 C4.578999996185303,12.357999801635742 4.578999996185303,-17.69700050354004 4.578999996185303,-17.69700050354004 C4.578999996185303,-17.69700050354004 -4.578999996185303,-12.357000350952148 -4.578999996185303,-12.357000350952148z"/></g><g opacity="1" transform="matrix(1,0,0,1,15.713000297546387,245.7429962158203)"><path stroke-linecap="butt" stroke-linejoin="miter" fill-opacity="0" stroke-miterlimit="10" stroke="rgb(241,90,34)" stroke-opacity="1" stroke-width="0.381" d=" M0.6850000023841858,-14.633000373840332 C0.6850000023841858,-14.633000373840332 0.6850000023841858,15.42199993133545 0.6850000023841858,15.42199993133545 C0.6850000023841858,15.42199993133545 -0.6850000023841858,14.628000259399414 -0.6850000023841858,14.628000259399414 C-0.6850000023841858,14.628000259399414 -0.6850000023841858,-15.42199993133545 -0.6850000023841858,-15.42199993133545 C-0.6850000023841858,-15.42199993133545 0.6850000023841858,-14.633000373840332 0.6850000023841858,-14.633000373840332z"/></g><g opacity="1" transform="matrix(1,0,0,1,20.290000915527344,228.04200744628906)"><path stroke-linecap="butt" stroke-linejoin="miter" fill-opacity="0" stroke-miterlimit="10" stroke="rgb(241,90,34)" stroke-opacity="1" stroke-width="0.381" d=" M-5.26200008392334,2.2769999504089355 C-5.26200008392334,2.2769999504089355 -3.8929998874664307,3.066999912261963 -3.8929998874664307,3.066999912261963 C-3.8929998874664307,3.066999912261963 5.26200008392334,-2.2730000019073486 5.26200008392334,-2.2730000019073486 C5.26200008392334,-2.2730000019073486 3.885999917984009,-3.066999912261963 3.885999917984009,-3.066999912261963 C3.885999917984009,-3.066999912261963 -5.26200008392334,2.2769999504089355 -5.26200008392334,2.2769999504089355z"/></g><g opacity="1" transform="matrix(1,0,0,1,21.246000289916992,251.4429931640625)"><path fill="rgb(255,84,42)" fill-opacity="1" d=" M1.7869999408721924,-2.6670000553131104 C1.7869999408721924,-3.799999952316284 0.9869999885559082,-4.25600004196167 0,-3.686000108718872 C-0.9879999756813049,-3.115999937057495 -1.7879999876022339,-1.7359999418258667 -1.7879999876022339,-0.6029999852180481 C-1.7879999876022339,0.29499998688697815 -1.281999945640564,0.7580000162124634 -0.5809999704360962,0.6309999823570251 C-0.5809999704360962,0.6309999823570251 -0.5809999704360962,3.930999994277954 -0.5809999704360962,3.930999994277954 C-0.5809999704360962,3.930999994277954 0.5799999833106995,3.259999990463257 0.5799999833106995,3.259999990463257 C0.5799999833106995,3.259999990463257 0.5799999833106995,-0.03999999910593033 0.5799999833106995,-0.03999999910593033 C1.281000018119812,-0.722000002861023 1.7869999408721924,-1.7690000534057617 1.7869999408721924,-2.6670000553131104z"/></g></g><g style="display: none;"><g><path/></g></g><g style="display: none;"><g><path/></g></g><g style="display: none;"><g><path/></g></g><g style="display: none;"><g><path/></g></g><g style="display: none;"><g><path/></g></g><g style="display: none;"><g><path/></g><g><path/></g><g><path/></g><g><path/></g><g><path/></g><g><path/></g><g><path/></g><g><path/></g><g><path/></g><g><path/></g><g><path/></g><g><path/></g><g><path/></g><g><path/></g><g><path/></g><g><path/></g><g><path/></g><g><path/></g><g><path/></g><g><path/></g><g><path/></g><g><path/></g><g><path/></g><g><path/></g><g><path/></g><g><path/></g><g><path/></g><g><path/></g><g><path/></g><g><path/></g><g><path/></g><g><path/></g><g><path/></g><g><path/></g><g><path/></g><g><path/></g><g><path/></g><g><path/></g><g><path/></g><g><path/></g><g><path/></g><g><path/></g><g><path/></g><g><path/></g><g><path/></g></g><g style="display: none;"><g><path/></g></g><g style="display: none;"><g><path/></g></g><g style="display: none;"><g><path/></g></g><g style="display: none;"><g><path/></g></g><g style="display: none;"><g><path/></g></g><g transform="matrix(1,0,0,1,115.60800170898438,314.0799865722656)" opacity="1" style="display: block;"><g opacity="1" transform="matrix(1,0,0,1,11.744000434875488,9.291999816894531)"><path fill="rgb(255,84,42)" fill-opacity="1" d=" M-9.104000091552734,4.90500020980835 C-6.0269999504089355,5.000999927520752 2.5829999446868896,1.2890000343322754 6.198999881744385,-2.26200008392334 C9.543999671936035,-5.547999858856201 9.8149995803833,-9.041999816894531 10.654000282287598,-7.750999927520752 C11.494000434875488,-6.459000110626221 8.295000076293945,0.7730000019073486 4.002999782562256,3.677999973297119 C-2.194999933242798,7.875 -7.013999938964844,9.041999816894531 -8.845999717712402,8.907999992370605 C-11.493000030517578,8.71500015258789 -11.170000076293945,4.840000152587891 -9.104000091552734,4.90500020980835z"/></g></g><g transform="matrix(1,0,0,1,224.0909881591797,66.06298828125)" opacity="1" style="display: block;"><g opacity="1" transform="matrix(1,0,0,1,82.91200256347656,215.14300537109375)"><path fill="rgb(255,255,255)" fill-opacity="1" d=" M-69.33899688720703,-192.49099731445312 C-69.33899688720703,-192.49099731445312 69.33899688720703,-112.4260025024414 69.33899688720703,-112.4260025024414 C69.33899688720703,-112.4260025024414 69.33899688720703,206.86399841308594 69.33899688720703,206.86399841308594 C69.33899688720703,206.86399841308594 81.86499786376953,214.09500122070312 81.86499786376953,214.09500122070312 C81.86499786376953,214.09500122070312 81.86499786376953,-119.56700134277344 81.86499786376953,-119.56700134277344 C81.86499786376953,-119.56700134277344 -81.86499786376953,-214.0959930419922 -81.86499786376953,-214.0959930419922 C-81.86499786376953,-214.0959930419922 -81.72200012207031,-184.73800659179688 -81.72200012207031,-184.73800659179688"/><path stroke-linecap="butt" stroke-linejoin="miter" fill-opacity="0" stroke-miterlimit="10" stroke="rgb(241,90,34)" stroke-opacity="1" stroke-width="0.419" d=" M-69.33899688720703,-192.49099731445312 C-69.33899688720703,-192.49099731445312 69.33899688720703,-112.4260025024414 69.33899688720703,-112.4260025024414 C69.33899688720703,-112.4260025024414 69.33899688720703,206.86399841308594 69.33899688720703,206.86399841308594 C69.33899688720703,206.86399841308594 81.86499786376953,214.09500122070312 81.86499786376953,214.09500122070312 C81.86499786376953,214.09500122070312 81.86499786376953,-119.56700134277344 81.86499786376953,-119.56700134277344 C81.86499786376953,-119.56700134277344 -81.86499786376953,-214.0959930419922 -81.86499786376953,-214.0959930419922 C-81.86499786376953,-214.0959930419922 -81.72200012207031,-184.73800659179688 -81.72200012207031,-184.73800659179688"/></g></g><g transform="matrix(1,0,0,1,224.23300170898438,58.7449951171875)" opacity="1" style="display: block;"><g opacity="1" transform="matrix(1,0,0,1,170.95599365234375,266.0530090332031)"><path fill="rgb(241,90,34)" fill-opacity="1" d=" M6.322000026702881,163.1580047607422 C6.322000026702881,163.1580047607422 -6.322000026702881,170.50399780273438 -6.322000026702881,170.50399780273438 C-6.322000026702881,170.50399780273438 -6.322000026702881,-163.1580047607422 -6.322000026702881,-163.1580047607422 C-6.322000026702881,-163.1580047607422 6.322000026702881,-170.50399780273438 6.322000026702881,-170.50399780273438 C6.322000026702881,-170.50399780273438 6.322000026702881,163.1580047607422 6.322000026702881,163.1580047607422z"/><path stroke-linecap="butt" stroke-linejoin="miter" fill-opacity="0" stroke-miterlimit="10" stroke="rgb(255,255,255)" stroke-opacity="1" stroke-width="0.419" d=" M6.322000026702881,163.1580047607422 C6.322000026702881,163.1580047607422 -6.322000026702881,170.50399780273438 -6.322000026702881,170.50399780273438 C-6.322000026702881,170.50399780273438 -6.322000026702881,-163.1580047607422 -6.322000026702881,-163.1580047607422 C-6.322000026702881,-163.1580047607422 6.322000026702881,-170.50399780273438 6.322000026702881,-170.50399780273438 C6.322000026702881,-170.50399780273438 6.322000026702881,163.1580047607422 6.322000026702881,163.1580047607422z"/></g><g opacity="1" transform="matrix(1,0,0,1,89.16200256347656,51.97100067138672)"><path fill="rgb(241,90,34)" fill-opacity="1" d=" M-75.47200012207031,-50.92399978637695 C-75.47200012207031,-50.92399978637695 -88.11499786376953,-43.57699966430664 -88.11499786376953,-43.57699966430664 C-88.11499786376953,-43.57699966430664 75.47100067138672,50.92399978637695 75.47100067138672,50.92399978637695 C75.47100067138672,50.92399978637695 88.11499786376953,43.57699966430664 88.11499786376953,43.57699966430664 C88.11499786376953,43.57699966430664 -75.47200012207031,-50.92399978637695 -75.47200012207031,-50.92399978637695z"/><path stroke-linecap="butt" stroke-linejoin="miter" fill-opacity="0" stroke-miterlimit="10" stroke="rgb(255,255,255)" stroke-opacity="1" stroke-width="0.419" d=" M-75.47200012207031,-50.92399978637695 C-75.47200012207031,-50.92399978637695 -88.11499786376953,-43.57699966430664 -88.11499786376953,-43.57699966430664 C-88.11499786376953,-43.57699966430664 75.47100067138672,50.92399978637695 75.47100067138672,50.92399978637695 C75.47100067138672,50.92399978637695 88.11499786376953,43.57699966430664 88.11499786376953,43.57699966430664 C88.11499786376953,43.57699966430664 -75.47200012207031,-50.92399978637695 -75.47200012207031,-50.92399978637695z"/></g></g></g></svg>