<?xml version="1.0" standalone="no"?>
<svg xmlns:xlink="http://www.w3.org/1999/xlink" width="448" height="484" viewBox="0 0 448 484" fill="none" xmlns="http://www.w3.org/2000/svg">
<path d="M101.309 28.6643L224.276 172.743L306.774 124.195C306.774 124.195 207.154 -8.92138 180.693 0.475039C155.788 9.87146 101.309 28.6643 101.309 28.6643Z" fill="#F7F7F7"/>
<path d="M309.887 124.194C309.887 124.194 328.565 91.307 337.905 47.457C337.905 47.457 431.298 85.0427 395.497 179.007L309.887 124.194Z" fill="#F7F7F7"/>
<path d="M395.497 179.007L403.28 277.67L439.081 272.972C439.081 272.972 448.42 269.839 446.863 252.613C445.307 233.82 442.194 194.668 442.194 194.668C442.194 194.668 443.75 185.272 421.958 182.14C395.497 177.441 395.497 179.007 395.497 179.007Z" fill="#F7F7F7"/>
<path d="M403.282 277.669L331.681 335.614L364.368 399.822C364.368 399.822 372.151 424.88 395.499 396.69C417.291 368.501 426.63 363.803 425.074 346.576C423.517 329.349 418.848 288.631 403.282 277.669Z" fill="#F7F7F7"/>
<path d="M330.124 335.615L232.061 291.765L146.45 465.598C146.45 465.598 140.224 478.127 162.016 479.693C183.808 482.825 219.608 490.656 238.287 471.863C256.966 454.636 330.124 335.615 330.124 335.615Z" fill="#F7F7F7"/>
<path d="M232.061 290.198L222.722 174.309L11.0305 188.403C11.0305 188.403 -1.4219 189.969 0.13465 213.46C1.6912 244.782 4.80431 279.235 4.80431 279.235C4.80431 279.235 3.24776 293.33 31.2657 294.896C59.2837 296.462 228.948 296.462 232.061 290.198Z" fill="#F7F7F7"/>
</svg>